<?xml version="1.0" standalone="no"?><!DOCTYPE svg PUBLIC "-//W3C//DTD SVG 1.1//EN" "http://www.w3.org/Graphics/SVG/1.1/DTD/svg11.dtd"><svg t="1563436805845" class="icon" viewBox="0 0 1024 1024" version="1.1" xmlns="http://www.w3.org/2000/svg" p-id="521" xmlns:xlink="http://www.w3.org/1999/xlink" width="200" height="200"><defs><style type="text/css"></style></defs><path d="M1024 400.184H0V194.206a17.658 17.658 0 0 1 17.656-17.656h988.69a17.658 17.658 0 0 1 17.656 17.656v205.978z" fill="#FAB446" p-id="522"></path><path d="M1006.344 847.448H17.656A17.658 17.658 0 0 1 0 829.792V623.816h1024v205.976a17.656 17.656 0 0 1-17.656 17.656z" fill="#73AF00" p-id="523"></path><path d="M0 400.176h1024V623.8H0z" fill="#F5F5F5" p-id="524"></path><path d="M512 606.896c-52.328 0-94.896-42.568-94.896-94.896s42.568-94.896 94.896-94.896 94.896 42.568 94.896 94.896-42.568 94.896-94.896 94.896z m0-172.138c-42.596 0-77.242 34.646-77.242 77.242s34.646 77.242 77.242 77.242 77.242-34.646 77.242-77.242-34.646-77.242-77.242-77.242z" fill="#41479B" p-id="525"></path><path d="M501.242 512a10.758 10.758 0 1 0 21.516 0 10.758 10.758 0 1 0-21.516 0z" fill="#41479B" p-id="526"></path><path d="M512 513.614l-27.34 2.76-58.728-2.76v-3.228l58.728-2.76 27.34 2.76z m0 0l27.34 2.76 58.728-2.76v-3.228l-58.728-2.76-27.34 2.76z" fill="#41479B" p-id="527"></path><path d="M510.386 512l-2.76-27.34 2.76-58.728h3.228l2.76 58.728-2.76 27.34z m0 0l-2.76 27.34 2.76 58.728h3.228l2.76-58.728-2.76-27.34z" fill="#41479B" p-id="528"></path><path d="M510.86 513.14l-21.284-17.378L450 452.282l2.282-2.282 43.48 39.576 17.378 21.284z" fill="#41479B" p-id="529"></path><path d="M510.86 513.14l17.378 21.284L571.718 574l2.282-2.282-39.576-43.48-21.284-17.378z" fill="#41479B" p-id="530"></path><path d="M510.86 510.86l17.378-21.284L571.718 450l2.282 2.282-39.576 43.48-21.284 17.378z" fill="#41479B" p-id="531"></path><path d="M510.86 510.86l-21.284 17.378L450 571.718l2.282 2.282 43.48-39.576 17.378-21.284z" fill="#41479B" p-id="532"></path><path d="M512.618 513.492l-24.204 13.012-55.312 19.924-1.236-2.982 53.202-25.024 26.314-7.914z" fill="#41479B" p-id="533"></path><path d="M512.618 513.492l26.314-7.914 53.202-25.024-1.236-2.982-55.312 19.924-24.204 13.012z" fill="#41479B" p-id="534"></path><path d="M510.508 512.618l-13.012-24.204-19.924-55.312 2.982-1.236 25.024 53.202 7.914 26.314z" fill="#41479B" p-id="535"></path><path d="M510.508 512.618l7.914 26.314 25.024 53.202 2.982-1.236-19.924-55.312-13.012-24.204z" fill="#41479B" p-id="536"></path><path d="M511.382 513.492l-26.314-7.914-53.202-25.024 1.236-2.982 55.312 19.924 24.204 13.012z m0 0l24.204 13.012 55.312 19.924 1.236-2.982-53.202-25.024-26.314-7.914z" fill="#41479B" p-id="537"></path><path d="M510.508 511.382l7.914-26.314 25.024-53.202 2.982 1.236-19.924 55.312-13.012 24.204z m0 0l-13.012 24.204-19.924 55.312 2.982 1.236 25.024-53.202 7.914-26.314z" fill="#41479B" p-id="538"></path><path d="M497.488 512a14.512 14.512 0 1 0 29.024 0 14.512 14.512 0 1 0-29.024 0z" fill="#F5F5F5" p-id="539"></path><path d="M503.298 512a8.702 8.702 0 1 0 17.404 0 8.702 8.702 0 1 0-17.404 0z" fill="#41479B" p-id="540"></path></svg>