<?xml version="1.0" standalone="no"?><!DOCTYPE svg PUBLIC "-//W3C//DTD SVG 1.1//EN" "http://www.w3.org/Graphics/SVG/1.1/DTD/svg11.dtd"><svg t="1563438060364" class="icon" viewBox="0 0 1024 1024" version="1.1" xmlns="http://www.w3.org/2000/svg" p-id="27932" xmlns:xlink="http://www.w3.org/1999/xlink" width="200" height="200"><defs><style type="text/css"></style></defs><path d="M0 0h1024v1024H0z" fill="#F2C500" p-id="27933"></path><path d="M0 0h1024v277.333333H0zM0 746.666667h1024v277.333333H0z" fill="#E94B35" p-id="27934"></path><path d="M128 426.666667a21.333333 21.333333 0 0 1 21.333333 21.333333v234.666667h21.333334v21.333333H85.333333v-21.333333h21.333334V448a21.333333 21.333333 0 0 1 21.333333-21.333333zM181.333333 437.333333h234.666667v184.896c0 63.808-52.522667 92.437333-117.333333 92.437334s-117.333333-28.629333-117.333334-92.437334V437.333333z" fill="#D9D9D9" p-id="27935"></path><path d="M192 373.333333a106.666667 53.333333 0 1 0 213.333333 0 106.666667 53.333333 0 1 0-213.333333 0Z" fill="#E94B35" p-id="27936"></path><path d="M106.666667 437.333333a21.333333 21.333333 0 1 0 42.666666 0 21.333333 21.333333 0 1 0-42.666666 0Z" fill="#E94B35" p-id="27937"></path><path d="M192 448h106.666667v106.666667H192z" fill="#E94B35" p-id="27938"></path><path d="M192 554.666667h106.666667v74.666666a53.333333 53.333333 0 1 1-106.666667 0V554.666667z" fill="#F2C500" p-id="27939"></path><path d="M298.666667 554.666667h106.666666v74.666666a53.333333 53.333333 0 1 1-106.666666 0V554.666667z" fill="#E94B35" p-id="27940"></path><path d="M469.333333 426.666667a21.333333 21.333333 0 0 1 21.333334 21.333333v234.666667h21.333333v21.333333h-85.333333v-21.333333h21.333333V448a21.333333 21.333333 0 0 1 21.333333-21.333333z" fill="#D9D9D9" p-id="27941"></path><path d="M448 437.333333a21.333333 21.333333 0 1 0 42.666667 0 21.333333 21.333333 0 1 0-42.666667 0Z" fill="#E94B35" p-id="27942"></path><path d="M320 501.333333a42.666667 32 90 1 0 64 0 42.666667 32 90 1 0-64 0Z" fill="#E94B35" p-id="27943"></path></svg>